<svg width="24" height="24" viewBox="0 0 24 24" fill="none" xmlns="http://www.w3.org/2000/svg"><rect x="12" y="0.75" width="15.8648" height="15.9549" rx="2" transform="rotate(45 12 0.75)" fill="#E69700"></rect><path d="M12.9653 12.9481H11.0518L10.824 8H13.1931L12.9653 12.9481ZM12.0085 13.5372C12.1756 13.5372 12.3331 13.5708 12.4812 13.6381C12.6331 13.7017 12.7659 13.7896 12.8798 13.9018C12.9937 14.014 13.083 14.1449 13.1475 14.2945C13.2158 14.4404 13.25 14.5956 13.25 14.7602C13.25 14.9285 13.2158 15.0874 13.1475 15.237C13.083 15.3866 12.9937 15.5175 12.8798 15.6297C12.7659 15.7419 12.6331 15.8317 12.4812 15.899C12.3331 15.9663 12.1756 16 12.0085 16C11.8377 16 11.6763 15.9663 11.5245 15.899C11.3726 15.8317 11.2397 15.7419 11.1259 15.6297C11.012 15.5175 10.9208 15.3866 10.8525 15.237C10.7842 15.0874 10.75 14.9285 10.75 14.7602C10.75 14.5956 10.7842 14.4404 10.8525 14.2945C10.9208 14.1449 11.012 14.014 11.1259 13.9018C11.2397 13.7896 11.3726 13.7017 11.5245 13.6381C11.6763 13.5708 11.8377 13.5372 12.0085 13.5372Z" fill="#141414"></path></svg>