<svg xmlns="http://www.w3.org/2000/svg" width="24" height="24" viewBox="0 0 24 24"><path fill-rule="evenodd" clip-rule="evenodd" d="M12 24c6.627 0 12-5.373 12-12S18.627 0 12 0 0 5.373 0 12s5.373 12 12 12zm5.575-13.903c0 3.67-2.89 7.903-8.172 7.903v-.002A8.336 8.336 0 0 1 5 16.752a5.89 5.89 0 0 0 4.251-1.151c-.6-.01-1.18-.203-1.662-.548a2.785 2.785 0 0 1-1.022-1.38c.43.08.875.063 1.297-.048a2.891 2.891 0 0 1-1.654-.964 2.722 2.722 0 0 1-.65-1.759v-.035c.4.215.847.334 1.304.347A2.78 2.78 0 0 1 5.66 9.531a2.7 2.7 0 0 1 .314-2.024 8.11 8.11 0 0 0 2.641 2.06c1.02.5 2.137.786 3.28.842a2.695 2.695 0 0 1 .181-1.777 2.82 2.82 0 0 1 1.262-1.303 2.96 2.96 0 0 1 1.821-.292 2.907 2.907 0 0 1 1.63.838 5.876 5.876 0 0 0 1.824-.674 2.805 2.805 0 0 1-1.263 1.537A5.886 5.886 0 0 0 19 8.3a5.74 5.74 0 0 1-1.433 1.437c.008.12.008.239.008.36z" fill="#FFF"></path></svg>